<?xml version="1.0" encoding="UTF-8"?>
<svg id="_레이어_1" data-name="레이어_1" xmlns="http://www.w3.org/2000/svg" viewBox="0 0 500 500">
  <defs>
    <style>
      .cls-1 {
        fill: #fff;
      }
    </style>
  </defs>
  <path d="M122.12,213.25c-3.21-2.73-6.45-5.31-9.5-8.11-7.27-6.65-13.02-14.48-17.49-23.24-.77-1.5-1.71-2.26-3.46-2.58-9.79-1.8-15.05-9.87-12.73-20.22,2.41-10.8,8.51-19.27,18.2-24.75,8.47-4.8,17.26-1.21,20.03,7.82,1.18,3.86.94,7.71-.51,11.45-.73,1.88-1.52,3.78-2.58,5.49-1.29,2.1-1.19,3.99-.27,6.19,3.34,8,8.8,14.35,15.22,19.97,2.74,2.4,5.67,4.59,8.5,6.87,35.05-40.48,109.7-54.83,161.33-20.35,1.05-1.39,2.25-2.71,3.14-4.22,2.9-4.87,5.82-9.74,8.44-14.77.69-1.32.73-3.34.3-4.81-2.55-8.81-.29-16.52,6.46-21.23,5.79-4.04,12.94-3.47,17.57,1.91,5.6,6.5,8.07,14.15,6.75,22.79-.76,4.98-3.5,8.51-8.23,10.27-1.85.68-2.86,1.75-3.56,3.57-2.95,7.63-7.1,14.57-12.73,20.85,14.71,15.66,24.9,33.86,30.43,54.79,5.19-.4,10.27-.9,15.36-1.17,12.77-.68,25.52-.84,37.77,3.68,9.08,3.35,15.07,9.51,16.03,19.51.69,7.23-.67,14.2-3.67,20.85-6.18,13.72-16.88,23.03-29.51,30.48-11.37,6.71-23.7,11.19-36.14,15.38-1.55.52-2.33,1.3-2.9,2.81-12.26,32.34-33.38,56.64-65.09,71.19-13.56,6.22-27.86,9.39-42.75,10.26-20.86,1.22-40.89-2.01-60.07-10.38-16.9-7.37-31.22-18.24-43.26-32.13-1.65-1.9-3.27-2.62-5.78-2.62-9.76,0-19.54.15-29.26-.53-13.36-.93-26.63-2.84-38.73-9.22-7.91-4.17-13.95-10.08-16.27-19.04-2.4-9.29.52-17.48,5.79-24.98,7.27-10.35,16.96-17.96,28.35-23.19,8.29-3.8,16.93-6.87,25.46-10.15,1.32-.51,1.94-.92,1.96-2.47.24-23.05,5.69-44.75,16.99-64.91.19-.34.29-.72.43-1.06ZM111.63,287.66c.49,4.92,1.01,14.43,2.49,23.79,1.06,6.74,3.36,13.3,5.23,19.9.19.67,1.28,1.62,1.88,1.57,13.12-1,26.25-1.86,39.32-3.29,11.03-1.21,22.02-2.93,32.97-4.72,15.43-2.51,30.87-5.03,46.21-8.04,17.23-3.38,34.43-6.97,51.49-11.1,17.05-4.12,33.9-9.06,50.87-13.53,2.36-.62,2.97-1.78,2.83-4.07-.43-7.21-.57-14.45-1.01-21.66-.67-10.97-2.95-21.64-6.37-32.08-6.55-20.03-17.56-37-34.17-50.15-18.48-14.63-39.66-22.51-63.02-24.28-14.49-1.1-28.88.2-42.91,4.29-27.42,7.99-49.8,23.13-65.43,47.3-14.01,21.69-20.34,45.73-20.4,76.06ZM104.36,289.13c-.67.12-1.17.12-1.59.3-8.71,3.69-17.65,6.95-26.06,11.24-9.05,4.61-16.88,11.03-22.48,19.73-3.73,5.78-5.92,12-3.62,18.91,2.53,7.59,8.37,12.02,15.44,14.92,12.24,5.02,25.18,6.86,38.27,7.25,26.12.79,52.18-.36,78.11-3.81,14.14-1.88,28.37-3.41,42.37-6.08,23.93-4.57,47.8-9.53,71.52-15.06,23.33-5.45,46.34-12.2,68.54-21.34,12.71-5.23,24.65-11.79,33.84-22.36,6.98-8.04,11.2-17.24,10.66-28.17-.25-5.09-2.17-9.55-6.65-12.04-3.76-2.09-7.92-3.8-12.11-4.73-12.06-2.65-24.25-1.69-36.41-.48-1.8.18-3.58.59-5.38.9.6,3.44,1.14,6.52,1.69,9.69.63,0,1.11,0,1.59,0,5.5.01,11.04-.36,16.49.14,5.74.52,10.78,2.83,12.55,9.07,1.43,5.01-.1,9.43-3.32,13.35-3.9,4.76-8.99,7.95-14.43,10.59-11.41,5.52-23.43,9.4-35.61,12.78-36.38,10.1-73.3,17.78-110.44,24.48-24.51,4.43-49.11,8.1-73.93,10.31-15,1.33-30,2.28-45.06,1.76-5.18-.18-10.36-.91-15.07-3.38-5.25-2.75-7.69-8-5.76-13.5.96-2.74,2.68-5.43,4.68-7.55,5.89-6.22,13.15-10.49,21.09-13.64.74-.29,1.8-1.17,1.79-1.76-.08-3.78-.43-7.56-.7-11.53ZM140.25,368.78c31.85,32.48,69.88,44.26,113.37,35.46,39.92-8.07,66.27-33.49,82.56-70.72-64.19,18.55-128.89,31.32-195.93,35.25ZM132.8,197.55c-2.03-1.59-3.92-2.98-5.71-4.5-8.16-6.96-15.31-14.71-19.6-24.77-1.97-4.63-2.23-8.89.63-13.34,1.31-2.04,2.11-4.57,2.52-6.99.47-2.82-.37-5.54-2.92-7.28-2.38-1.62-4.8-.9-7.15.21-.73.35-1.42.78-2.07,1.26-6.39,4.67-10.74,10.74-12.53,18.5-1.52,6.62,1.56,11.23,8.22,11.83,2.6.23,4.2,1.22,5.39,3.37.95,1.7,1.95,3.37,3.07,4.96,3.3,4.7,6.32,9.68,10.12,13.95,3.99,4.48,8.77,8.27,13.3,12.46,2.47-3.55,4.55-6.54,6.72-9.66ZM311.83,181.67c1.49-1.93,2.95-3.58,4.13-5.4,1.76-2.71,3.45-5.49,4.96-8.34,1.71-3.21,3.2-6.54,4.78-9.82.75-1.56,1.85-2.41,3.69-2.69,3.03-.46,4.92-2.48,5.2-5.31.57-5.72-.83-10.97-4.31-15.55-2.93-3.86-6.98-4.06-10.45-.67-3.5,3.42-3.43,7.58-2.09,11.75,1.23,3.81,1.01,7.32-.89,10.76-2.66,4.81-5.32,9.63-8.09,14.37-1.12,1.91-2.55,3.64-3.84,5.45,2.32,1.83,4.48,3.54,6.9,5.46ZM105.91,309.09c-6.04,2.53-11.72,5.8-16.71,10.13-1.87,1.62-3.57,3.59-4.83,5.72-1.55,2.61-.8,4.34,1.89,5.79.71.38,1.45.76,2.22.99,7.69,2.27,15.55,1.63,23.2,1.6-1.95-8.2-3.85-16.19-5.77-24.23ZM351.54,264.82c.32,8.19.6,15.52.91,23.71,5.36-2.86,10.41-5.2,15.06-8.17,2.51-1.6,4.72-4.02,6.4-6.51,2.3-3.42.87-6.79-3.08-8.02-2.22-.69-4.58-1.17-6.89-1.24-4.08-.13-8.18.13-12.4.23Z"/>
  <path d="M453.56,169.13c5.1,2.27,9.98,4.42,14.84,6.61,1.62.73,3.43,1.32,4.7,2.48,1.15,1.04,2.25,2.72,2.36,4.2.15,1.98-1.44,3.4-3.41,3.94-4.84,1.31-9.69,2.56-14.55,3.78-2.43.61-4.89,1.09-7.42,1.65-.56,5.12-1.05,10.19-1.69,15.25-.6,4.74-1.34,9.47-2.07,14.19-.12.79-.46,1.55-.79,2.29-1.43,3.19-4.03,3.77-6.57,1.33-1.16-1.11-2.16-2.44-3-3.82-3.81-6.32-7.54-12.69-11.3-19.04-.2-.34-.42-.66-.7-1.11-7.11,4.4-14.07,8.85-21.19,13.01-2.01,1.18-4.49,1.83-6.82,2.12-2.51.31-3.8-1.12-3.72-3.65.05-1.59.34-3.23.85-4.74,2.82-8.26,5.75-16.48,8.72-24.97-4.03-2.49-8.31-5.09-12.54-7.76-1.64-1.04-3.23-2.18-4.77-3.37-2.03-1.58-2.64-3.74-1.8-6.1.85-2.39,2.83-3.65,5.3-3.53,5.51.27,11,.77,16.51,1.17,1.53.11,3.06.21,4.8.33,1.01-4.65,1.88-9.16,2.99-13.62,1.59-6.35,3.37-12.66,5.08-18.98.19-.7.47-1.38.81-2.02,1.07-2.02,2.66-3.2,5.07-3.11,2.29.08,3.36,1.69,3.92,3.46,1.2,3.77,2.14,7.63,3.14,11.47,1.56,6.02,3.08,12.06,4.72,18.48,2.61-2,4.97-3.9,7.42-5.67,3.03-2.18,6.12-4.27,9.21-6.37.73-.5,1.52-.96,2.34-1.29,1.95-.78,3.94-1.13,5.74.33,1.8,1.47,1.73,3.52,1.04,5.37-1.97,5.3-4.14,10.53-6.25,15.78-.21.52-.51,1-.99,1.92ZM400.99,206.5c7.25-4.45,13.84-8.57,20.51-12.56,3.85-2.3,5.71-1.74,7.94,2.13,2.88,4.99,5.72,9.99,8.6,14.97.57.99,1.28,1.91,2.23,3.3.34-2.08.64-3.49.78-4.92.68-6.78,1.34-13.57,1.96-20.36.18-1.92,1.07-3.26,2.9-3.77,2.18-.6,4.4-1.05,6.62-1.48,3.48-.69,6.97-1.32,10.45-1.97-1.25-1.22-2.46-1.83-3.7-2.41-3.45-1.6-6.96-3.1-10.36-4.8-3.46-1.73-3.92-3.03-2.46-6.67,1.02-2.55,2.21-5.04,3.33-7.55.66-1.48,1.32-2.97,1.98-4.45-1.58.58-2.82,1.36-3.96,2.26-3.37,2.68-6.73,5.38-10.05,8.13-4.19,3.47-7.5,2.42-8.89-2.88-.84-3.21-1.64-6.43-2.5-9.63-1.25-4.66-2.53-9.31-3.8-13.96-1.06,1.89-1.58,3.75-2.01,5.62-1.63,7.1-3.24,14.2-4.85,21.31-.55,2.43-1.98,3.61-4.54,3.31-3.95-.45-7.9-.9-11.86-1.27-1.93-.18-3.87-.19-5.81-.27,4.49,3.35,9.01,6.21,13.45,9.19,2.88,1.93,3.39,3.41,2.18,6.65-1.02,2.72-2.47,5.29-3.46,8.02-1.62,4.45-3.02,8.98-4.7,14.05Z"/>
  <path class="cls-1" d="M105.91,309.09c1.91,8.04,3.82,16.03,5.77,24.23-7.66.03-15.51.67-23.2-1.6-.77-.23-1.51-.61-2.22-.99-2.69-1.45-3.44-3.17-1.89-5.79,1.26-2.12,2.97-4.09,4.83-5.72,4.98-4.33,10.66-7.6,16.71-10.13Z"/>
  <path class="cls-1" d="M351.54,264.82c4.21-.1,8.31-.36,12.4-.23,2.31.07,4.67.56,6.89,1.24,3.95,1.22,5.38,4.59,3.08,8.02-1.67,2.5-3.88,4.91-6.4,6.51-4.65,2.97-9.7,5.31-15.06,8.17-.32-8.2-.6-15.53-.91-23.71Z"/>
  <path d="M235.16,250.2c-2.48-.4-4.33-.31-5.76-1.05-1.26-.65-2.65-2.11-2.87-3.41-.2-1.19.71-3.19,1.76-3.87,3.99-2.59,8.48-3.45,13.21-2.47,2.01.42,3.73,1.7,3.58,3.68-.12,1.62-1.12,3.84-2.42,4.57-2.44,1.38-5.38,1.87-7.5,2.54Z"/>
  <path d="M203.79,217.01c0,3.61-2.84,6.74-6.21,6.83-3.25.08-5.71-2.61-5.71-6.22,0-3.87,2.61-6.89,6.01-6.94,3.33-.05,5.91,2.71,5.92,6.34Z"/>
  <path d="M263.84,215.83c.01-3.54,2.83-6.52,6.19-6.55,3.27-.03,5.75,2.78,5.78,6.55.03,3.56-2.58,6.49-5.83,6.54-3.34.05-6.16-2.95-6.14-6.54Z"/>
</svg>